<?xml version="1.0" standalone="no"?><!DOCTYPE svg PUBLIC "-//W3C//DTD SVG 1.1//EN" "http://www.w3.org/Graphics/SVG/1.1/DTD/svg11.dtd"><svg class="icon" width="200px" height="187.20px" viewBox="0 0 1094 1024" version="1.1" xmlns="http://www.w3.org/2000/svg"><path fill="#333333" d="M1065.20576 307.094069c-5.932138-6.497103-19.173517-21.821793-36.652138-41.913379-53.036138-60.345379-141.700414-161.544828-182.554483-204.517518-16.737103-17.690483-37.676138-39.865379-78.530207-41.560275-2.789517 0-11.864276-0.353103-125.98731-0.353104-129.518345 0-312.390621 0.353103-312.390621 0.353104-19.208828 0-48.869517 4.413793-81.355034 41.560275-23.728552 27.294897-61.086897 69.208276-98.409931 111.474759C101.833622 225.986207 53.317208 280.858483 30.647967 307.411862-9.146792 352.079448-10.206102 414.437517 27.823139 470.333793l2.471724 3.389793a81289.710345 81289.710345 0 0 0 257.942069 290.039173l179.058759 201.410207c33.191724 37.146483 59.321379 42.266483 80.295724 42.266482 22.316138 0 47.457103-5.12 80.260414-42.266482l185.37931-208.225104c108.861793-122.350345 201.374897-225.950897 251.974621-283.542069 34.251034-39.90069 43.99669-114.511448 0-166.311724z m-51.659034 123.021241a122665.772138 122665.772138 0 0 1-251.303725 282.871173l-185.344 208.225103c-17.090207 19.067586-23.728552 19.067586-28.601379 19.067586-4.590345 0-11.546483 0-28.63669-19.067586l-179.411862-201.410207c-113.805241-127.823448-210.449655-236.50869-256.211862-287.991172-20.232828-30.649379-20.585931-59.321379-1.05931-81.107862 23.057655-26.58869 71.220966-81.107862 118.678069-134.603035 37.358345-42.619586 74.363586-84.532966 98.445241-111.792551 15.713103-18.078897 24.081655-18.078897 29.307586-18.078897 0 0 182.907586-0.353103 312.072828-0.353103 98.092138 0 119.348966 0.353103 123.233104 0.353103 10.451862 0.353103 14.618483 3.072 30.72 20.126897 39.759448 41.913379 128.070621 142.441931 180.435862 202.434207 17.796414 20.48 31.426207 35.769379 36.652138 41.560275 20.585931 23.869793 16.737103 61.369379 1.05931 79.766069z m-256.529656-57.591172l-209.778758 262.426483-209.778759-263.09738c-2.118621-3.425103-2.824828-3.425103-5.932138-3.425103H229.198036v46.009379h2.471724c19.173517 0 26.482759 4.766897 34.533517 15.32469 0.706207 1.05931 1.765517 2.401103 3.531035 4.449103 46.04469 61.334069 226.833655 275.703172 277.821793 342.510345 50.952828-66.807172 231.424-281.494069 278.174896-343.216552 1.05931-1.341793 2.118621-2.365793 2.824828-3.389793 8.015448-10.24 14.971586-15.32469 34.533517-15.324689h2.471724v-46.362483h-101.940965c-2.824828 0-3.884138 0-6.638345 4.096z" /></svg>