<?xml version="1.0" standalone="no"?><!DOCTYPE svg PUBLIC "-//W3C//DTD SVG 1.1//EN" "http://www.w3.org/Graphics/SVG/1.1/DTD/svg11.dtd"><svg class="icon" width="200px" height="200.00px" viewBox="0 0 1024 1024" version="1.1" xmlns="http://www.w3.org/2000/svg"><path fill="#333333" d="M234.168786 842.788845l-24.410969 0c-69.554122 0-126.139885-56.617485-126.139885-126.192074 0-69.553099 56.585763-126.128629 126.139885-126.128629l96.970542 0c5.867638 0 10.614755-4.749164 10.614755-10.614755s-4.747117-10.614755-10.614755-10.614755l-96.970542 0c-81.256652 0-147.368372 66.110697-147.368372 147.358139 0 81.287351 66.110697 147.419538 147.368372 147.419538l24.410969 0c5.866614 0 10.613732-4.747117 10.613732-10.612709C244.782517 847.535963 240.0354 842.788845 234.168786 842.788845zM782.604626 575.292512 434.143283 575.292512c-98.702999 0-179.004907 80.313164-179.004907 179.01514 0 98.68151 80.301907 178.974207 179.004907 178.974207l348.461343 0c98.700953 0 179.004907-80.293721 179.004907-178.974207C961.609533 655.605675 881.305579 575.292512 782.604626 575.292512zM782.604626 912.050302 434.143283 912.050302c-86.999446 0-157.77642-70.75446-157.77642-157.74265 0-87.008656 70.776973-157.784606 157.77642-157.784606l348.461343 0c86.998423 0 157.775396 70.77595 157.775396 157.784606C940.380022 841.295841 869.603049 912.050302 782.604626 912.050302zM351.279017 524.976546c32.827663 0 64.971757-9.328459 92.938716-26.991748 4.954849-3.130294 6.436596-9.680477 3.306302-14.636349-3.120061-4.975315-9.661034-6.385431-14.646582-3.317559-24.566512 15.507182-52.782134 23.716144-81.598436 23.716144-84.593654 0-153.422252-68.848041-153.422252-153.452951 0-84.58342 68.828598-153.410995 153.422252-153.410995 7.919367 0 16.274662 0.74599 25.561166 2.279926 5.732561 0.995677 11.235902-2.964518 12.20088-8.727779 0.963954-5.783727-2.954285-11.256368-8.738012-12.21009-10.438747-1.721201-19.932981-2.571568-29.024034-2.571568-96.306416 0-174.650739 78.344323-174.650739 174.640506C176.628278 446.612781 254.972601 524.976546 351.279017 524.976546zM608.358093 515.897773c117.214608 0 212.57856-95.363951 212.57856-212.600049 0-117.214608-95.363951-212.57856-212.57856-212.57856-117.215632 0-212.56935 95.363951-212.56935 212.57856C395.788743 420.532799 491.142461 515.897773 608.358093 515.897773zM608.358093 111.947651c105.511056 0 191.349049 85.848227 191.349049 191.350073 0 105.522312-85.837994 191.370539-191.349049 191.370539-105.501846 0-191.338816-85.848227-191.338816-191.370539C417.018254 197.795878 502.856247 111.947651 608.358093 111.947651z" /></svg>