<?xml version="1.0" standalone="no"?><!DOCTYPE svg PUBLIC "-//W3C//DTD SVG 1.1//EN" "http://www.w3.org/Graphics/SVG/1.1/DTD/svg11.dtd"><svg class="icon" width="200px" height="200.00px" viewBox="0 0 1024 1024" version="1.1" xmlns="http://www.w3.org/2000/svg"><path fill="#333333" d="M716.8 512v358.4H153.6V307.2h360.96a216.576 216.576 0 0 1-2.56-25.6 224.768 224.768 0 0 1 14.336-76.8H153.6a102.4 102.4 0 0 0-102.4 102.4v563.2a102.4 102.4 0 0 0 102.4 102.4h563.2a102.4 102.4 0 0 0 102.4-102.4V497.664a224.768 224.768 0 0 1-76.8 14.336 216.576 216.576 0 0 1-25.6 0z m51.2-358.4a102.4 102.4 0 1 0 102.4 102.4 102.4 102.4 0 0 0-102.4-102.4z"  /></svg>