<?xml version="1.0" standalone="no"?><!DOCTYPE svg PUBLIC "-//W3C//DTD SVG 1.1//EN" "http://www.w3.org/Graphics/SVG/1.1/DTD/svg11.dtd"><svg class="icon" width="200px" height="199.80px" viewBox="0 0 1025 1024" version="1.1" xmlns="http://www.w3.org/2000/svg"><path fill="#333333" d="M865.08125 138.1625H161.05625c-54 0-97.875 45.61875-97.875 101.7v546.46875c0 56.1375 43.93125 101.75625 97.875 101.75625h704.08125c54.1125 0 98.04375-45.61875 98.04375-101.75625V239.8625c0-56.08125-43.9875-101.7-98.1-101.7z m46.51875 648.16875a47.475 47.475 0 0 1-46.51875 48.2625H161.05625c-25.5375 0-46.40625-21.65625-46.40625-48.20625V239.8625c0-26.6625 20.8125-48.15 46.40625-48.15h704.08125c25.65 0 46.51875 21.54375 46.51875 48.15v546.46875z m-82.6875-450.84375H540.29375a26.1 26.1 0 0 0-25.7625 26.55c0 14.85 11.41875 26.775 25.7625 26.775h288.61875a26.15625 26.15625 0 0 0 25.65-26.775 26.38125 26.38125 0 0 0-7.3125-18.61875 26.26875 26.26875 0 0 0-18.3375-7.93125z m0 136.40625H540.29375a26.04375 26.04375 0 0 0-25.7625 26.60625 26.04375 26.04375 0 0 0 25.7625 26.71875h288.61875a26.325 26.325 0 0 0 25.65-26.71875 26.15625 26.15625 0 0 0-25.65-26.60625z m0 130.21875H585.40625a26.325 26.325 0 0 0-25.7625 26.71875 26.04375 26.04375 0 0 0 25.7625 26.71875h243.50625c14.0625 0 25.65-11.98125 25.65-26.71875s-11.475-26.71875-25.65-26.71875zM431.05625 543.55625a140.7375 140.7375 0 0 0 48.2625-106.875c0-76.6125-60.01875-138.9375-133.875-138.9375s-133.93125 62.26875-133.93125 138.9375c0 42.91875 18.9 81.39375 48.375 106.875-52.14375 24.69375-93.31875 71.83125-111.375 132.13125a27.1125 27.1125 0 0 0 16.93125 33.525 25.875 25.875 0 0 0 32.34375-17.55c20.25-68.175 79.70625-113.9625 147.7125-113.9625s127.4625 45.73125 147.825 113.90625a25.9875 25.9875 0 0 0 24.58125 18.7875 27.1125 27.1125 0 0 0 7.65-1.18125 26.8875 26.8875 0 0 0 16.9875-33.525C524.43125 615.3875 483.25625 568.25 431.05625 543.55625z m-85.55625-21.375c-45.45 0-82.29375-38.3625-82.29375-85.55625 0-47.1375 36.9-85.5 82.29375-85.5 45.45 0 82.40625 38.3625 82.40625 85.5S390.89375 522.18125 345.5 522.18125z m0 0" /></svg>