<?xml version="1.0" standalone="no"?><!DOCTYPE svg PUBLIC "-//W3C//DTD SVG 1.1//EN" "http://www.w3.org/Graphics/SVG/1.1/DTD/svg11.dtd"><svg class="icon" width="200px" height="200.00px" viewBox="0 0 1024 1024" version="1.1" xmlns="http://www.w3.org/2000/svg"><path fill="#333333" d="M983.786625 881.468796 856.352257 1009.27667c-8.637728 8.665357-20.572548 14.057157-33.781384 14.057157-13.183254 0-25.140587-5.393847-33.781384-14.057157l-63.71923-63.915705c-8.637728-8.664334-13.980409-20.648272-13.980409-33.879622 0-26.491351 21.397333-47.938825 47.76384-47.938825 13.20679 0 25.140587 5.342682 33.80492 14.031575l29.910217 30.010501 93.630471-93.927229c8.635681-8.688893 20.596084-14.031575 33.779338-14.031575 26.39209 0 47.787376 21.447475 47.787376 47.937802C997.769081 860.796988 992.424352 872.780927 983.786625 881.468796zM821.945633 840.421938c-16.777105-15.230889-38.621623-24.817222-63.09092-24.817222-52.758598 0-95.551216 42.917462-95.551216 95.874581 0 26.514887 10.886955 50.285267 28.264741 67.512626l-0.276293 0.274246 43.918255 44.067658L74.020342 1023.333828c-26.391067 0-47.787376-21.471011-47.787376-47.938825L26.232966 144.478556c0-26.492374 21.396309-47.938825 47.787376-47.938825l79.622432 0 0 47.938825c0 52.931536 42.793642 95.873558 95.574752 95.873558 52.756551 0 95.551216-42.944068 95.551216-95.873558L344.768743 96.540753l47.787376 0 0 47.938825c0 52.931536 42.769083 95.873558 95.550193 95.873558 52.782134 0 95.574752-42.944068 95.574752-95.873558L583.681064 96.540753l47.761794 0 0 47.938825c0 52.931536 42.794665 95.873558 95.576799 95.873558 52.756551 0 95.54917-42.944068 95.54917-95.873558L822.568826 96.540753l79.648015 0c26.390044 0 47.761794 21.446451 47.761794 47.938825l0 607.209432c-26.390044 0-50.259684 10.735505-67.559699 28.065196L821.945633 840.421938zM153.642774 823.593667c0 22.071691 17.827017 39.948851 39.822984 39.948851l302.606992 0c21.995967 0 39.824007-17.877159 39.824007-39.948851l0 0 0 0 0 0 0 0c0-22.069645-17.828041-39.946804-39.824007-39.946804L193.465758 783.646863C171.468768 783.646863 153.642774 801.524023 153.642774 823.593667zM774.783497 368.186593 201.429127 368.186593c-26.390044 0-47.786353 21.472034-47.786353 47.938825 0 26.464745 21.396309 47.937802 47.786353 47.937802l573.35437 0c26.390044 0 47.787376-21.472034 47.787376-47.937802C822.571896 389.658627 801.17354 368.186593 774.783497 368.186593zM774.783497 575.917752 488.106312 575.917752l-79.622432 0-207.055776 0c-26.390044 0-47.786353 21.446451-47.786353 47.936779 0 26.465768 21.396309 47.938825 47.786353 47.938825l207.056799 0 79.622432 0 286.676162 0c26.390044 0 47.787376-21.471011 47.787376-47.938825C822.571896 597.364203 801.17354 575.917752 774.783497 575.917752zM727.02068 192.415334c-26.390044 0-47.787376-21.472034-47.787376-47.937802L679.233304 48.602951c0-26.465768 21.397333-47.937802 47.787376-47.937802 26.39209 0 47.76384 21.471011 47.76384 47.937802l0 95.874581C774.783497 170.944324 753.41277 192.415334 727.02068 192.415334zM488.106312 192.415334c-26.390044 0-47.787376-21.472034-47.787376-47.937802L440.318936 48.602951c0-26.465768 21.397333-47.937802 47.787376-47.937802 26.390044 0 47.787376 21.471011 47.787376 47.937802l0 95.874581C535.893688 170.944324 514.496355 192.415334 488.106312 192.415334zM249.217527 192.415334c-26.391067 0-47.788399-21.472034-47.788399-47.937802L201.429127 48.602951c0-26.465768 21.397333-47.937802 47.788399-47.937802 26.367531 0 47.762817 21.471011 47.762817 47.937802l0 95.874581C296.980343 170.944324 275.585057 192.415334 249.217527 192.415334z" /></svg>